<?xml version="1.0" encoding="UTF-8" standalone="no"?>
<!DOCTYPE svg PUBLIC "-//W3C//DTD SVG 1.1//EN"
 "http://www.w3.org/Graphics/SVG/1.1/DTD/svg11.dtd">
<!-- Generated by graphviz version 2.26.3 (20100126.1600)
 -->
<!-- Title: models_diagram Pages: 1 -->
<svg width="408pt" height="250pt"
 viewBox="0.00 0.00 408.00 250.00" xmlns="http://www.w3.org/2000/svg" xmlns:xlink="http://www.w3.org/1999/xlink">
<g id="graph1" class="graph" transform="scale(1 1) rotate(0) translate(4 246)">
<title>models_diagram</title>
<polygon fill="white" stroke="white" points="-4,5 -4,-246 405,-246 405,5 -4,5"/>
<!-- _diagram_info -->
<g id="node1" class="node"><title>_diagram_info</title>
<text text-anchor="start" x="8" y="-225.8" font-family="Times Roman,serif" font-size="13.00">Models diagram</text>
<text text-anchor="start" x="8" y="-208.8" font-family="Times Roman,serif" font-size="13.00">Date: Feb 19 2012 &#45; 10:49</text>
<text text-anchor="start" x="8" y="-191.8" font-family="Times Roman,serif" font-size="13.00">Migration version: 20120219041415</text>
<text text-anchor="start" x="8" y="-174.8" font-family="Times Roman,serif" font-size="13.00">Generated by RailRoady 1.0.6</text>
<text text-anchor="start" x="8" y="-157.8" font-family="Times Roman,serif" font-size="13.00">http://railroady.prestonlee.com</text>
</g>
<!-- Answer -->
<g id="node2" class="node"><title>Answer</title>
<ellipse fill="none" stroke="black" cx="302" cy="-19" rx="48.7904" ry="18.3848"/>
<text text-anchor="middle" x="302" y="-15.4" font-family="Times Roman,serif" font-size="14.00">Answer</text>
</g>
<!-- Question -->
<g id="node3" class="node"><title>Question</title>
<ellipse fill="none" stroke="black" cx="344" cy="-93" rx="55.8614" ry="18.3848"/>
<text text-anchor="middle" x="344" y="-89.4" font-family="Times Roman,serif" font-size="14.00">Question</text>
</g>
<!-- Question&#45;&gt;Answer -->
<g id="edge2" class="edge"><title>Question&#45;&gt;Answer</title>
<path fill="none" stroke="#0ccdd8" d="M329.651,-67.7178C325.759,-60.8617 321.528,-53.407 317.573,-46.4381"/>
<ellipse fill="none" stroke="#0ccdd8" cx="331.644" cy="-71.2291" rx="4.00002" ry="4.00002"/>
<polygon fill="#0ccdd8" stroke="#0ccdd8" points="317.344,-46.035 316.322,-35.1169 314.876,-41.6866 312.408,-37.3382 312.408,-37.3382 312.408,-37.3382 314.876,-41.6866 308.495,-39.5594 317.344,-46.035 317.344,-46.035"/>
</g>
<!-- User -->
<g id="node4" class="node"><title>User</title>
<ellipse fill="none" stroke="black" cx="302" cy="-195" rx="33.9411" ry="18.3848"/>
<text text-anchor="middle" x="302" y="-191.4" font-family="Times Roman,serif" font-size="14.00">User</text>
</g>
<!-- User&#45;&gt;Answer -->
<g id="edge6" class="edge"><title>User&#45;&gt;Answer</title>
<path fill="none" stroke="#ac9434" d="M291.264,-169.161C282.455,-144.642 272.423,-106.774 279,-74 280.864,-64.7102 284.336,-55.0311 288.028,-46.4291"/>
<ellipse fill="none" stroke="#ac9434" cx="292.775" cy="-173.192" rx="4.00001" ry="4.00001"/>
<polygon fill="#ac9434" stroke="#ac9434" points="288.064,-46.3505 296.309,-39.1212 290.14,-41.8018 292.215,-37.253 292.215,-37.253 292.215,-37.253 290.14,-41.8018 288.122,-35.3848 288.064,-46.3505 288.064,-46.3505"/>
</g>
<!-- User&#45;&gt;Question -->
<g id="edge4" class="edge"><title>User&#45;&gt;Question</title>
<path fill="none" stroke="#59f490" d="M312.733,-168.934C318.808,-154.182 326.402,-135.737 332.585,-120.721"/>
<ellipse fill="none" stroke="#59f490" cx="311.032" cy="-173.066" rx="4.00001" ry="4.00001"/>
<polygon fill="#59f490" stroke="#59f490" points="332.607,-120.668 340.576,-113.135 334.511,-116.045 336.415,-111.422 336.415,-111.422 336.415,-111.422 334.511,-116.045 332.254,-109.708 332.607,-120.668 332.607,-120.668"/>
</g>
</g>
</svg>
