<?xml version="1.0" encoding="UTF-8" standalone="no"?>
<!DOCTYPE svg PUBLIC "-//W3C//DTD SVG 1.1//EN"
 "http://www.w3.org/Graphics/SVG/1.1/DTD/svg11.dtd">
<!-- Generated by graphviz version 2.26.3 (20100126.1600)
 -->
<!-- Title: models_diagram Pages: 1 -->
<svg width="540pt" height="548pt"
 viewBox="0.00 0.00 540.00 548.00" xmlns="http://www.w3.org/2000/svg" xmlns:xlink="http://www.w3.org/1999/xlink">
<g id="graph1" class="graph" transform="scale(1 1) rotate(0) translate(4 544)">
<title>models_diagram</title>
<polygon fill="white" stroke="white" points="-4,5 -4,-544 537,-544 537,5 -4,5"/>
<!-- _diagram_info -->
<g id="node1" class="node"><title>_diagram_info</title>
<text text-anchor="start" x="8" y="-435.8" font-family="Times Roman,serif" font-size="13.00">Models diagram</text>
<text text-anchor="start" x="8" y="-418.8" font-family="Times Roman,serif" font-size="13.00">Date: Feb 19 2012 &#45; 10:48</text>
<text text-anchor="start" x="8" y="-401.8" font-family="Times Roman,serif" font-size="13.00">Migration version: 20120219041415</text>
<text text-anchor="start" x="8" y="-384.8" font-family="Times Roman,serif" font-size="13.00">Generated by RailRoady 1.0.6</text>
<text text-anchor="start" x="8" y="-367.8" font-family="Times Roman,serif" font-size="13.00">http://railroady.prestonlee.com</text>
</g>
<!-- Answer -->
<g id="node2" class="node"><title>Answer</title>
<polyline fill="none" stroke="black" points="324.5,-1 465.5,-1 "/>
<path fill="none" stroke="black" d="M465.5,-1C471.5,-1 477.5,-7 477.5,-13"/>
<polyline fill="none" stroke="black" points="477.5,-13 477.5,-95 "/>
<path fill="none" stroke="black" d="M477.5,-95C477.5,-101 471.5,-107 465.5,-107"/>
<polyline fill="none" stroke="black" points="465.5,-107 324.5,-107 "/>
<path fill="none" stroke="black" d="M324.5,-107C318.5,-107 312.5,-101 312.5,-95"/>
<polyline fill="none" stroke="black" points="312.5,-95 312.5,-13 "/>
<path fill="none" stroke="black" d="M312.5,-13C312.5,-7 318.5,-1 324.5,-1"/>
<text text-anchor="middle" x="395" y="-90.4" font-family="Times Roman,serif" font-size="14.00">Answer</text>
<polyline fill="none" stroke="black" points="312.5,-81 477.5,-81 "/>
<text text-anchor="start" x="320.5" y="-64.4" font-family="Times Roman,serif" font-size="14.00">answer :string</text>
<text text-anchor="start" x="320.5" y="-46.4" font-family="Times Roman,serif" font-size="14.00">rating :string</text>
<text text-anchor="start" x="320.5" y="-28.4" font-family="Times Roman,serif" font-size="14.00">created_at :datetime</text>
<text text-anchor="start" x="320.5" y="-10.4" font-family="Times Roman,serif" font-size="14.00">updated_at :datetime</text>
</g>
<!-- Question -->
<g id="node3" class="node"><title>Question</title>
<polyline fill="none" stroke="black" points="379.5,-145 520.5,-145 "/>
<path fill="none" stroke="black" d="M520.5,-145C526.5,-145 532.5,-151 532.5,-157"/>
<polyline fill="none" stroke="black" points="532.5,-157 532.5,-221 "/>
<path fill="none" stroke="black" d="M532.5,-221C532.5,-227 526.5,-233 520.5,-233"/>
<polyline fill="none" stroke="black" points="520.5,-233 379.5,-233 "/>
<path fill="none" stroke="black" d="M379.5,-233C373.5,-233 367.5,-227 367.5,-221"/>
<polyline fill="none" stroke="black" points="367.5,-221 367.5,-157 "/>
<path fill="none" stroke="black" d="M367.5,-157C367.5,-151 373.5,-145 379.5,-145"/>
<text text-anchor="middle" x="450" y="-216.4" font-family="Times Roman,serif" font-size="14.00">Question</text>
<polyline fill="none" stroke="black" points="367.5,-207 532.5,-207 "/>
<text text-anchor="start" x="375.5" y="-190.4" font-family="Times Roman,serif" font-size="14.00">question :string</text>
<text text-anchor="start" x="375.5" y="-172.4" font-family="Times Roman,serif" font-size="14.00">created_at :datetime</text>
<text text-anchor="start" x="375.5" y="-154.4" font-family="Times Roman,serif" font-size="14.00">updated_at :datetime</text>
</g>
<!-- Question&#45;&gt;Answer -->
<g id="edge2" class="edge"><title>Question&#45;&gt;Answer</title>
<path fill="none" stroke="#352612" d="M428.962,-137.362C426.2,-130.582 423.345,-123.575 420.519,-116.637"/>
<ellipse fill="none" stroke="#352612" cx="430.482" cy="-141.092" rx="4.00002" ry="4.00002"/>
<polygon fill="#352612" stroke="#352612" points="420.466,-116.507 420.86,-105.549 418.58,-111.877 416.693,-107.247 416.693,-107.247 416.693,-107.247 418.58,-111.877 412.526,-108.944 420.466,-116.507 420.466,-116.507"/>
</g>
<!-- User -->
<g id="node4" class="node"><title>User</title>
<polyline fill="none" stroke="black" points="280,-271 510,-271 "/>
<path fill="none" stroke="black" d="M510,-271C516,-271 522,-277 522,-283"/>
<polyline fill="none" stroke="black" points="522,-283 522,-527 "/>
<path fill="none" stroke="black" d="M522,-527C522,-533 516,-539 510,-539"/>
<polyline fill="none" stroke="black" points="510,-539 280,-539 "/>
<path fill="none" stroke="black" d="M280,-539C274,-539 268,-533 268,-527"/>
<polyline fill="none" stroke="black" points="268,-527 268,-283 "/>
<path fill="none" stroke="black" d="M268,-283C268,-277 274,-271 280,-271"/>
<text text-anchor="middle" x="395" y="-522.4" font-family="Times Roman,serif" font-size="14.00">User</text>
<polyline fill="none" stroke="black" points="268,-513 522,-513 "/>
<text text-anchor="start" x="276" y="-496.4" font-family="Times Roman,serif" font-size="14.00">email :string</text>
<text text-anchor="start" x="276" y="-478.4" font-family="Times Roman,serif" font-size="14.00">encrypted_password :string</text>
<text text-anchor="start" x="276" y="-460.4" font-family="Times Roman,serif" font-size="14.00">reset_password_token :string</text>
<text text-anchor="start" x="276" y="-442.4" font-family="Times Roman,serif" font-size="14.00">reset_password_sent_at :datetime</text>
<text text-anchor="start" x="276" y="-424.4" font-family="Times Roman,serif" font-size="14.00">remember_created_at :datetime</text>
<text text-anchor="start" x="276" y="-406.4" font-family="Times Roman,serif" font-size="14.00">current_sign_in_at :datetime</text>
<text text-anchor="start" x="276" y="-388.4" font-family="Times Roman,serif" font-size="14.00">last_sign_in_at :datetime</text>
<text text-anchor="start" x="276" y="-370.4" font-family="Times Roman,serif" font-size="14.00">current_sign_in_ip :string</text>
<text text-anchor="start" x="276" y="-352.4" font-family="Times Roman,serif" font-size="14.00">last_sign_in_ip :string</text>
<text text-anchor="start" x="276" y="-334.4" font-family="Times Roman,serif" font-size="14.00">name :string</text>
<text text-anchor="start" x="276" y="-316.4" font-family="Times Roman,serif" font-size="14.00">karma :integer</text>
<text text-anchor="start" x="276" y="-298.4" font-family="Times Roman,serif" font-size="14.00">created_at :datetime</text>
<text text-anchor="start" x="276" y="-280.4" font-family="Times Roman,serif" font-size="14.00">updated_at :datetime</text>
</g>
<!-- User&#45;&gt;Answer -->
<g id="edge6" class="edge"><title>User&#45;&gt;Answer</title>
<path fill="none" stroke="#3f7838" d="M358.465,-262.577C353.153,-223.965 351.631,-182.264 359,-144 360.729,-135.02 363.347,-125.796 366.397,-116.838"/>
<ellipse fill="none" stroke="#3f7838" cx="359.079" cy="-266.809" rx="4.00001" ry="4.00001"/>
<polygon fill="#3f7838" stroke="#3f7838" points="366.464,-116.652 374.089,-108.771 368.16,-111.949 369.856,-107.245 369.856,-107.245 369.856,-107.245 368.16,-111.949 365.623,-105.719 366.464,-116.652 366.464,-116.652"/>
</g>
<!-- User&#45;&gt;Question -->
<g id="edge4" class="edge"><title>User&#45;&gt;Question</title>
<path fill="none" stroke="#3db680" d="M431.113,-263.175C432.883,-256.222 434.601,-249.477 436.232,-243.073"/>
<ellipse fill="none" stroke="#3db680" cx="430.115" cy="-267.092" rx="4.00001" ry="4.00001"/>
<polygon fill="#3db680" stroke="#3db680" points="436.25,-242.998 443.079,-234.418 437.484,-238.153 438.718,-233.308 438.718,-233.308 438.718,-233.308 437.484,-238.153 434.357,-232.197 436.25,-242.998 436.25,-242.998"/>
</g>
</g>
</svg>
